<svg width="21" height="21" viewBox="0 0 21 21" xmlns="http://www.w3.org/2000/svg" fill="currentColor">
<path d="M12.453 18.375C12.627 18.375 12.794 18.4441 12.917 18.5672C13.0401 18.6903 13.1093 18.8572 13.1093 19.0312C13.1093 19.2053 13.0401 19.3722 12.917 19.4953C12.794 19.6184 12.627 19.6875 12.453 19.6875H3.9375C3.41536 19.6875 2.9146 19.4801 2.54538 19.1109C2.17617 18.7417 1.96875 18.2409 1.96875 17.7188V3.28125C1.96875 2.75911 2.17617 2.25835 2.54538 1.88913C2.9146 1.51992 3.41536 1.3125 3.9375 1.3125H15.0938C15.6159 1.3125 16.1167 1.51992 16.4859 1.88913C16.8551 2.25835 17.0625 2.75911 17.0625 3.28125C17.0625 3.4553 16.9934 3.62222 16.8703 3.74529C16.7472 3.86836 16.5803 3.9375 16.4062 3.9375C16.2322 3.9375 16.0653 3.86836 15.9422 3.74529C15.8191 3.62222 15.75 3.4553 15.75 3.28125C15.75 3.1072 15.6809 2.94028 15.5578 2.81721C15.4347 2.69414 15.2678 2.625 15.0938 2.625H3.9375C3.76345 2.625 3.59653 2.69414 3.47346 2.81721C3.35039 2.94028 3.28125 3.1072 3.28125 3.28125V17.7188C3.28125 17.8928 3.35039 18.0597 3.47346 18.1828C3.59653 18.3059 3.76345 18.375 3.9375 18.375H12.453ZM17.0625 12.0127V15.0203C17.0625 15.895 15.75 15.895 15.75 15.0203V12.0127C15.75 11.1372 17.0625 11.1372 17.0625 12.0127Z" fill="currentColor" />
<path d="M5.90625 6.5625C5.7322 6.5625 5.56528 6.49336 5.44221 6.37029C5.31914 6.24722 5.25 6.0803 5.25 5.90625C5.25 5.7322 5.31914 5.56528 5.44221 5.44221C5.56528 5.31914 5.7322 5.25 5.90625 5.25H10.5C10.674 5.25 10.841 5.31914 10.964 5.44221C11.0871 5.56528 11.1563 5.7322 11.1563 5.90625C11.1563 6.0803 11.0871 6.24722 10.964 6.37029C10.841 6.49336 10.674 6.5625 10.5 6.5625H5.90625ZM5.90625 9.84375C5.7322 9.84375 5.56528 9.77461 5.44221 9.65154C5.31914 9.52847 5.25 9.36155 5.25 9.1875C5.25 9.01345 5.31914 8.84653 5.44221 8.72346C5.56528 8.60039 5.7322 8.53125 5.90625 8.53125H8.53125C8.7053 8.53125 8.87222 8.60039 8.99529 8.72346C9.11836 8.84653 9.1875 9.01345 9.1875 9.1875C9.1875 9.36155 9.11836 9.52847 8.99529 9.65154C8.87222 9.77461 8.7053 9.84375 8.53125 9.84375H5.90625ZM13.1132 19.0024C13.1132 19.1764 13.044 19.3433 12.921 19.4664C12.7979 19.5895 12.631 19.6586 12.4569 19.6586C12.2829 19.6586 12.116 19.5895 11.9929 19.4664C11.8698 19.3433 11.8007 19.1764 11.8007 19.0024L11.8125 16.4062C11.8125 15.8841 12.0199 15.3833 12.3891 15.0141C12.7583 14.6449 13.2591 14.4375 13.7813 14.4375L16.401 14.4611C16.575 14.4611 16.742 14.5303 16.865 14.6533C16.9881 14.7764 17.0573 14.9433 17.0573 15.1174C17.0573 15.2914 16.9881 15.4583 16.865 15.5814C16.742 15.7045 16.575 15.7736 16.401 15.7736L13.7813 15.75C13.6072 15.75 13.4403 15.8191 13.3172 15.9422C13.1941 16.0653 13.125 16.2322 13.125 16.4062L13.1132 19.0024Z" fill="currentColor" />
<path d="M13.0823 19.4346C13.0201 19.4943 12.9468 19.5412 12.8664 19.5725C12.7861 19.6038 12.7004 19.619 12.6142 19.6172C12.528 19.6154 12.443 19.5966 12.3641 19.562C12.2851 19.5274 12.2138 19.4775 12.1541 19.4153C12.0944 19.353 12.0476 19.2797 12.0162 19.1994C11.9849 19.119 11.9697 19.0333 11.9715 18.9471C11.9733 18.8609 11.9921 18.7759 12.0267 18.697C12.0614 18.618 12.1112 18.5467 12.1734 18.487L15.8727 14.9393C15.9344 14.8773 16.0079 14.8282 16.0888 14.7949C16.1698 14.7616 16.2565 14.7449 16.344 14.7457C16.4315 14.7465 16.518 14.7647 16.5983 14.7994C16.6787 14.8341 16.7512 14.8845 16.8118 14.9477C16.8724 15.0108 16.9197 15.0854 16.951 15.1672C16.9823 15.2489 16.997 15.336 16.9941 15.4235C16.9912 15.5109 16.9709 15.5969 16.9343 15.6764C16.8977 15.7559 16.8456 15.8272 16.781 15.8863L13.0823 19.4346ZM18.0653 6.86088C18.1297 6.80566 18.1826 6.73826 18.221 6.66253C18.2593 6.58681 18.2823 6.50426 18.2886 6.41962C18.295 6.33499 18.2845 6.24993 18.2579 6.16934C18.2313 6.08875 18.189 6.01421 18.1335 5.95L18.125 5.9395C18.0115 5.80906 17.8512 5.72865 17.6788 5.71575C17.5064 5.70285 17.3359 5.75849 17.2043 5.8706L8.37375 13.3774L8.06203 14.4406L9.25838 14.3474L18.0653 6.86088ZM19.1238 5.089C19.4638 5.48041 19.6345 5.99083 19.5984 6.50806C19.5622 7.02528 19.3221 7.50697 18.9308 7.84722L9.94678 15.4853C9.84145 15.5748 9.71054 15.6288 9.57272 15.6395L7.21547 15.822C7.10949 15.8302 7.00309 15.8126 6.90542 15.7706C6.80776 15.7287 6.72175 15.6636 6.6548 15.581C6.58785 15.4984 6.54196 15.4008 6.52108 15.2966C6.5002 15.1924 6.50496 15.0846 6.53494 14.9826L7.16953 12.8196C7.20563 12.6969 7.27679 12.5874 7.37428 12.5046L16.3531 4.87113C16.748 4.53489 17.2596 4.36807 17.7768 4.4069C18.294 4.44573 18.775 4.68707 19.1153 5.0785L19.1238 5.089Z" fill="currentColor" />
</svg>
